/* XPM */
static char * com_xpm[] = {
"50 50 864 2",
"  	c #729539",
". 	c #9DC161",
"+ 	c #9CC05C",
"@ 	c #99BE54",
"# 	c #A2C857",
"$ 	c #9CC350",
"% 	c #96BD4A",
"& 	c #8DB342",
"* 	c #9DC356",
"= 	c #92B74D",
"- 	c #97BC55",
"; 	c #90B54C",
"> 	c #AACF66",
", 	c #A5CB5E",
"' 	c #A5CB5C",
") 	c #91B74A",
"! 	c #96BB54",
"~ 	c #98BC5A",
"{ 	c #9BBF5B",
"] 	c #9ABE59",
"^ 	c #99BD58",
"/ 	c #98BC55",
"( 	c #99BD55",
"_ 	c #9DC159",
": 	c #9BC053",
"< 	c #95BB4C",
"[ 	c #95BB4A",
"} 	c #A3CA57",
"| 	c #B0D764",
"1 	c #A8CF5C",
"2 	c #96BC4B",
"3 	c #96BB52",
"4 	c #98BD56",
"5 	c #9ABF58",
"6 	c #99BE57",
"7 	c #98BD54",
"8 	c #96BB51",
"9 	c #97BC52",
"0 	c #8FB548",
"a 	c #96BC4D",
"b 	c #9DC354",
"c 	c #91B748",
"d 	c #A8CE5F",
"e 	c #A4CA59",
"f 	c #A6CB61",
"g 	c #A3C264",
"h 	c #7C9A42",
"i 	c #698C30",
"j 	c #95B959",
"k 	c #94B854",
"l 	c #9EC453",
"m 	c #A0C754",
"n 	c #A5CC59",
"o 	c #A3C958",
"p 	c #8EB447",
"q 	c #9CC157",
"r 	c #A3C861",
"s 	c #A3C85F",
"t 	c #9DC259",
"u 	c #A4CA5D",
"v 	c #ACD263",
"w 	c #B5DB6E",
"x 	c #A1C65F",
"y 	c #99BD5B",
"z 	c #93B753",
"A 	c #96BA56",
"B 	c #A0C55E",
"C 	c #A7CC66",
"D 	c #A5CA62",
"E 	c #A1C55C",
"F 	c #8EB24A",
"G 	c #99BF52",
"H 	c #A0C657",
"I 	c #9AC04F",
"J 	c #9FC653",
"K 	c #AAD15E",
"L 	c #B2D867",
"M 	c #A4C960",
"N 	c #9CC15A",
"O 	c #94B952",
"P 	c #9EC35A",
"Q 	c #A1C65C",
"R 	c #9CC255",
"S 	c #9BC152",
"T 	c #93B94A",
"U 	c #98BE4F",
"V 	c #9EC455",
"W 	c #AAD05F",
"X 	c #ADD268",
"Y 	c #AECD70",
"Z 	c #84A24A",
"` 	c #75983C",
" .	c #A0C464",
"..	c #94B94F",
"+.	c #9CC251",
"@.	c #9EC552",
"#.	c #A9D05D",
"$.	c #ADD362",
"%.	c #9FC558",
"&.	c #A9CE64",
"*.	c #9DC25B",
"=.	c #A5CA61",
"-.	c #93B84F",
";.	c #A6CC5F",
">.	c #A1C758",
",.	c #AAD063",
"'.	c #9BBF5D",
").	c #97BB57",
"!.	c #9EC35C",
"~.	c #A6CB64",
"{.	c #A9CE65",
"].	c #AACF65",
"^.	c #A8CE61",
"/.	c #A6CC5D",
"(.	c #A5CB5A",
"_.	c #A1C756",
":.	c #9FC554",
"<.	c #A6CD5A",
"[.	c #AFD564",
"}.	c #A2C75E",
"|.	c #A5CA60",
"1.	c #A4C95F",
"2.	c #B1D76A",
"3.	c #ABD162",
"4.	c #9AC051",
"5.	c #ACCB6E",
"6.	c #809E48",
"7.	c #82A549",
"8.	c #AED272",
"9.	c #AACE6A",
"0.	c #9EC359",
"a.	c #A0C655",
"b.	c #ACD265",
"c.	c #9FC45D",
"d.	c #9FC45B",
"e.	c #95BA51",
"f.	c #97BD50",
"g.	c #A2C662",
"h.	c #A8CC68",
"i.	c #A4C962",
"j.	c #9BC059",
"k.	c #99BE55",
"l.	c #ACD167",
"m.	c #9CC253",
"n.	c #94BB48",
"o.	c #98BD53",
"p.	c #A7CC65",
"q.	c #9ABF56",
"r.	c #ABD066",
"s.	c #A0C659",
"t.	c #A4CA5B",
"u.	c #A9C86B",
"v.	c #7A9842",
"w.	c #76993D",
"x.	c #A7CB6B",
"y.	c #A9CD69",
"z.	c #9BC24F",
"A.	c #A1C855",
"B.	c #A3C85E",
"C.	c #AFD46D",
"D.	c #A0C55C",
"E.	c #A1C65D",
"F.	c #A7CD5E",
"G.	c #A9CF62",
"H.	c #A3C763",
"I.	c #AED26E",
"J.	c #ABD069",
"K.	c #A3C95A",
"L.	c #98BE4D",
"M.	c #AFD566",
"N.	c #ACD168",
"O.	c #ABD067",
"P.	c #9DC258",
"Q.	c #A3C95C",
"R.	c #A1C75A",
"S.	c #9FC556",
"T.	c #97BD4E",
"U.	c #ACCA70",
"V.	c #7E9B47",
"W.	c #6B8E32",
"X.	c #9EC262",
"Y.	c #9BC056",
"Z.	c #9DC352",
"`.	c #97BE4B",
" +	c #97BD4C",
".+	c #9BC154",
"++	c #AED465",
"@+	c #98BC58",
"#+	c #9ABF55",
"$+	c #9AC053",
"%+	c #ACD261",
"&+	c #B0D667",
"*+	c #95BA50",
"=+	c #9CC158",
"-+	c #91B64C",
";+	c #ABD164",
">+	c #ADD364",
",+	c #B5DA71",
"'+	c #A4C268",
")+	c #799642",
"!+	c #6E9135",
"~+	c #9DC15D",
"{+	c #99BF4E",
"]+	c #92B946",
"^+	c #95BC49",
"/+	c #A7CD60",
"(+	c #92B849",
"_+	c #95BA53",
":+	c #93B851",
"<+	c #9BC057",
"[+	c #94BA4B",
"}+	c #8FB546",
"|+	c #93B84E",
"1+	c #98BE51",
"2+	c #95BB4E",
"3+	c #9DBB63",
"4+	c #769341",
"5+	c #6F9236",
"6+	c #9CC060",
"7+	c #9ABE5A",
"8+	c #9BC150",
"9+	c #A2C956",
"0+	c #A2C760",
"a+	c #A6CB62",
"b+	c #94B950",
"c+	c #9FC45A",
"d+	c #A8CD63",
"e+	c #9EC457",
"f+	c #90B54E",
"g+	c #A4C26A",
"h+	c #7F9C4A",
"i+	c #6C8F33",
"j+	c #ACD360",
"k+	c #ADD26B",
"l+	c #A7CC63",
"m+	c #A7CC62",
"n+	c #AFD46A",
"o+	c #96BC4F",
"p+	c #A2C85B",
"q+	c #B2D76D",
"r+	c #8EB349",
"s+	c #B5DA70",
"t+	c #9EBC64",
"u+	c #7F9C48",
"v+	c #678A2E",
"w+	c #A1C565",
"x+	c #A7CE5B",
"y+	c #A9CF5E",
"z+	c #8DB249",
"A+	c #A2C75D",
"B+	c #94BA4D",
"C+	c #A0C55B",
"D+	c #A0BE64",
"E+	c #7B9844",
"F+	c #A5C969",
"G+	c #B0D56B",
"H+	c #B0D669",
"I+	c #A4C864",
"J+	c #AECC72",
"K+	c #85A34D",
"L+	c #73963A",
"M+	c #9FC363",
"N+	c #99BF50",
"O+	c #ADD269",
"P+	c #A7C56B",
"Q+	c #809E46",
"R+	c #9ABE5E",
"S+	c #91B746",
"T+	c #93B94C",
"U+	c #8FB44A",
"V+	c #A5C467",
"W+	c #85A349",
"X+	c #A2C666",
"Y+	c #A5C965",
"Z+	c #AAD061",
"`+	c #A0C460",
" @	c #ADCC6E",
".@	c #8FAE51",
"+@	c #A9CE67",
"@@	c #AED369",
"#@	c #A8CD64",
"$@	c #B3D86E",
"%@	c #A5CA63",
"&@	c #A9C968",
"*@	c #86A547",
"=@	c #719438",
"-@	c #9DC062",
";@	c #A2C859",
">@	c #ADD461",
",@	c #A8CD66",
"'@	c #A9CF60",
")@	c #8FB44B",
"!@	c #BCCAAB",
"~@	c #91B64F",
"{@	c #B1D072",
"]@	c #89A84B",
"^@	c #6E9137",
"/@	c #9EC25E",
"(@	c #92B74E",
"_@	c #B4CA94",
":@	c #CBD7BB",
"<@	c #E7E2E8",
"[@	c #ACA4B1",
"}@	c #A098A3",
"|@	c #7A6F7D",
"1@	c #6C616F",
"2@	c #716674",
"3@	c #685D6E",
"4@	c #6C6078",
"5@	c #61576F",
"6@	c #837A8B",
"7@	c #807887",
"8@	c #C4BEC8",
"9@	c #B1C793",
"0@	c #97BC53",
"a@	c #A4C366",
"b@	c #7B993F",
"c@	c #72953B",
"d@	c #D6D6D8",
"e@	c #9E999D",
"f@	c #877988",
"g@	c #9A8D9F",
"h@	c #958A9A",
"i@	c #9A8D9E",
"j@	c #918696",
"k@	c #8E8290",
"l@	c #A396A7",
"m@	c #90849C",
"n@	c #857798",
"o@	c #786B87",
"p@	c #766C84",
"q@	c #8B8496",
"r@	c #ABA3B0",
"s@	c #574958",
"t@	c #C8C3CA",
"u@	c #E2E0E3",
"v@	c #A7C669",
"w@	c #7B9941",
"x@	c #6F9238",
"y@	c #98BB5D",
"z@	c #94B856",
"A@	c #AED467",
"B@	c #8B7782",
"C@	c #735C6C",
"D@	c #A08F9F",
"E@	c #878394",
"F@	c #544765",
"G@	c #65496F",
"H@	c #6A436F",
"I@	c #85678B",
"J@	c #63506C",
"K@	c #766B8D",
"L@	c #67587F",
"M@	c #746584",
"N@	c #6B5876",
"O@	c #614D69",
"P@	c #665172",
"Q@	c #AC92AB",
"R@	c #8C6C81",
"S@	c #614B58",
"T@	c #B0A7AC",
"U@	c #B6D47A",
"V@	c #87A54F",
"W@	c #73963C",
"X@	c #9EC163",
"Y@	c #9DC15F",
"Z@	c #A6CC5B",
"`@	c #DBD6DC",
" #	c #C1B0BA",
".#	c #856A7B",
"+#	c #361A28",
"@#	c #3A1A27",
"##	c #5D4457",
"$#	c #ADA4B5",
"%#	c #D2CAE2",
"&#	c #C49ECF",
"*#	c #CB9BCD",
"=#	c #B18CB8",
"-#	c #9E91AB",
";#	c #9186A8",
">#	c #9A8FAF",
",#	c #A495AC",
"'#	c #BCAEBF",
")#	c #D6C4DC",
"!#	c #C7ADD2",
"~#	c #C9AECD",
"{#	c #77576C",
"]#	c #4E273C",
"^#	c #48303E",
"/#	c #AC9EAB",
"(#	c #A6CA66",
"_#	c #AFCD73",
":#	c #7E9C46",
"<#	c #7FA248",
"[#	c #ADD072",
"}#	c #ACD06E",
"|#	c #DAD1D6",
"1#	c #4E3241",
"2#	c #3D2032",
"3#	c #29131F",
"4#	c #584852",
"5#	c #5A4A55",
"6#	c #4F3A49",
"7#	c #785C75",
"8#	c #BFA0C0",
"9#	c #CAACD2",
"0#	c #CBADD1",
"a#	c #C8AFCC",
"b#	c #D4BFD0",
"c#	c #CEBDD0",
"d#	c #A58BA6",
"e#	c #A1889B",
"f#	c #9F8296",
"g#	c #926F8F",
"h#	c #AE90B2",
"i#	c #CCB4CE",
"j#	c #7F667B",
"k#	c #3B2031",
"l#	c #624156",
"m#	c #594455",
"n#	c #DAD1D4",
"o#	c #ABC971",
"p#	c #7A9743",
"q#	c #789B41",
"r#	c #AACD6F",
"s#	c #ABCF6D",
"t#	c #624756",
"u#	c #543147",
"v#	c #371A2C",
"w#	c #53434E",
"x#	c #686369",
"y#	c #47484C",
"z#	c #56424E",
"A#	c #905D7C",
"B#	c #C8A0C2",
"C#	c #CCB1D0",
"D#	c #C3B5CC",
"E#	c #E9DBEA",
"F#	c #FAF3FA",
"G#	c #BB9AAB",
"H#	c #8C5F76",
"I#	c #966777",
"J#	c #AA7A8A",
"K#	c #AF738F",
"L#	c #AE7095",
"M#	c #B07EA1",
"N#	c #C09CB6",
"O#	c #4E2C45",
"P#	c #4C2A42",
"Q#	c #765E6E",
"R#	c #A498A2",
"S#	c #ADCB75",
"T#	c #7E9B49",
"U#	c #6B8E34",
"V#	c #9FC361",
"W#	c #A1C561",
"X#	c #8E7E88",
"Y#	c #614252",
"Z#	c #593247",
"`#	c #412534",
" $	c #5D4C56",
".$	c #545257",
"+$	c #242C2F",
"@$	c #583D4C",
"#$	c #9A587E",
"$$	c #D9AACA",
"%$	c #BAA3BD",
"&$	c #A79CAD",
"*$	c #A893A2",
"=$	c #AF9AA1",
"-$	c #A9929A",
";$	c #481D27",
">$	c #522232",
",$	c #541727",
"'$	c #681E37",
")$	c #9B496D",
"!$	c #A35881",
"~$	c #D3A1C6",
"{$	c #BD96B5",
"]$	c #5D3655",
"^$	c #50344A",
"/$	c #583F52",
"($	c #DED9DD",
"_$	c #A1BF69",
":$	c #759242",
"<$	c #6D9036",
"[$	c #9BBE60",
"}$	c #9ABE5C",
"|$	c #D7DDCC",
"1$	c #4D3C46",
"2$	c #67465B",
"3$	c #502543",
"4$	c #431C37",
"5$	c #573E51",
"6$	c #706671",
"7$	c #43404B",
"8$	c #8A6A81",
"9$	c #AE6A93",
"0$	c #E1B8D6",
"a$	c #816D88",
"b$	c #AA97AA",
"c$	c #876273",
"d$	c #3B1E23",
"e$	c #201815",
"f$	c #333331",
"g$	c #2F2B2A",
"h$	c #2D181D",
"i$	c #3C0E1B",
"j$	c #6B2D46",
"k$	c #975C7C",
"l$	c #B486AD",
"m$	c #D1ABD0",
"n$	c #BB96B7",
"o$	c #684762",
"p$	c #3F263B",
"q$	c #D3C8D0",
"r$	c #A2C06A",
"s$	c #799646",
"t$	c #709339",
"u$	c #9CBF61",
"v$	c #97BB59",
"w$	c #A7CD5C",
"x$	c #ABCF6B",
"y$	c #91878F",
"z$	c #472F45",
"A$	c #573452",
"B$	c #592D50",
"C$	c #411538",
"D$	c #AA91A6",
"E$	c #957C91",
"F$	c #553F56",
"G$	c #6A385E",
"H$	c #E3ADD1",
"I$	c #C39EC0",
"J$	c #8A7795",
"K$	c #926783",
"L$	c #490F27",
"M$	c #473535",
"N$	c #79837B",
"O$	c #7F8F8C",
"P$	c #435B5B",
"Q$	c #243330",
"R$	c #534545",
"S$	c #39141B",
"T$	c #7E5168",
"U$	c #A886A9",
"V$	c #CDA8D1",
"W$	c #E0B8DB",
"X$	c #BD9FBB",
"Y$	c #4F384C",
"Z$	c #D6CDD2",
"`$	c #9FBD67",
" %	c #7F9C4C",
".%	c #6A8D33",
"+%	c #9CC05E",
"@%	c #90B647",
"#%	c #A69FA7",
"$%	c #7A6C79",
"%%	c #968397",
"&%	c #513450",
"*%	c #4D294D",
"=%	c #52284E",
"-%	c #5C2E55",
";%	c #41113B",
">%	c #5B274E",
",%	c #D8B3D2",
"'%	c #D299C4",
")%	c #A78BB1",
"!%	c #927F9F",
"~%	c #83456E",
"{%	c #580D2B",
"]%	c #403232",
"^%	c #565C5A",
"/%	c #3F3F49",
"(%	c #3C4B52",
"_%	c #2D3739",
":%	c #6C6062",
"<%	c #8B636B",
"[%	c #87536A",
"}%	c #976A93",
"|%	c #9C6A9F",
"1%	c #A677A3",
"2%	c #633B5E",
"3%	c #5C4059",
"4%	c #E5DFE3",
"5%	c #A0BE68",
"6%	c #7E9B4B",
"7%	c #6C8F35",
"8%	c #A3C668",
"9%	c #A7CB69",
"0%	c #A8CE5D",
"a%	c #CCCBD0",
"b%	c #858390",
"c%	c #817782",
"d%	c #59525A",
"e%	c #867C84",
"f%	c #C5B9C5",
"g%	c #695B6C",
"h%	c #442745",
"i%	c #5C365B",
"j%	c #4F254B",
"k%	c #602F5C",
"l%	c #541F4B",
"m%	c #4F204A",
"n%	c #9B6B95",
"o%	c #C99EC9",
"p%	c #A98DB6",
"q%	c #5C4069",
"r%	c #603155",
"s%	c #440925",
"t%	c #634F50",
"u%	c #352F2F",
"v%	c #46404A",
"w%	c #2F2C37",
"x%	c #473A44",
"y%	c #6F4F5A",
"z%	c #8C6071",
"A%	c #59193E",
"B%	c #BA82AF",
"C%	c #C093BC",
"D%	c #5F3559",
"E%	c #3B1433",
"F%	c #C0B6BF",
"G%	c #A2C068",
"H%	c #7D9A48",
"I%	c #71943A",
"J%	c #A5C86A",
"K%	c #A8CC6A",
"L%	c #AED36A",
"M%	c #ACABB1",
"N%	c #A3A1AC",
"O%	c #86858B",
"P%	c #C1C0C5",
"Q%	c #C3DB9E",
"R%	c #534255",
"S%	c #4D3650",
"T%	c #4F2B4F",
"U%	c #451B41",
"V%	c #4C1D49",
"W%	c #623458",
"X%	c #4E2649",
"Y%	c #8B678D",
"Z%	c #BC9EC4",
"`%	c #5D3A62",
" &	c #4D2A48",
".&	c #3D1829",
"+&	c #795C5E",
"@&	c #605053",
"#&	c #6A6468",
"$&	c #7B6C73",
"%&	c #745F68",
"&&	c #644253",
"*&	c #582D48",
"=&	c #5E2C51",
"-&	c #8A5C81",
";&	c #583053",
">&	c #6E596C",
",&	c #CEC4CC",
"'&	c #9BBD61",
")&	c #AFCD75",
"!&	c #8AA753",
"~&	c #ACAAB5",
"{&	c #9E9DA3",
"]&	c #ABAAB0",
"^&	c #7C677A",
"/&	c #3B213A",
"(&	c #4A2748",
"_&	c #4F2D48",
":&	c #4D2643",
"<&	c #714B64",
"[&	c #4E2948",
"}&	c #411F40",
"|&	c #482647",
"1&	c #4D2D44",
"2&	c #4B2B3A",
"3&	c #75575F",
"4&	c #68535A",
"5&	c #6F5E68",
"6&	c #CBC0C8",
"7&	c #7C656D",
"8&	c #3D232E",
"9&	c #6A505B",
"0&	c #6F5767",
"a&	c #837083",
"b&	c #C8BEC7",
"c&	c #9EC061",
"d&	c #A6C46A",
"e&	c #83A14B",
"f&	c #ADACB2",
"g&	c #78777F",
"h&	c #9D9CA4",
"i&	c #B5B3BE",
"j&	c #897888",
"k&	c #765E74",
"l&	c #4E2F3E",
"m&	c #3F242B",
"n&	c #4F3445",
"o&	c #826D7E",
"p&	c #988B95",
"q&	c #92828D",
"r&	c #503845",
"s&	c #4F3542",
"t&	c #442F38",
"u&	c #494045",
"v&	c #5C4B53",
"w&	c #837479",
"x&	c #E1DBDF",
"y&	c #B5CC92",
"z&	c #94B94C",
"A&	c #9FBE61",
"B&	c #A2C567",
"C&	c #A2C664",
"D&	c #C0D2A8",
"E&	c #7F7E84",
"F&	c #5C5C68",
"G&	c #9E9DA5",
"H&	c #A09EA9",
"I&	c #A6C47B",
"J&	c #ABCF69",
"K&	c #AFCE71",
"L&	c #8EAC54",
"M&	c #A6C96B",
"N&	c #B2D76E",
"O&	c #BAB9BE",
"P&	c #54525F",
"Q&	c #494657",
"R&	c #9795A0",
"S&	c #878592",
"T&	c #ACD16A",
"U&	c #ADD366",
"V&	c #B5DB6C",
"W&	c #ABCA6D",
"X&	c #88A64E",
"Y&	c #9FC264",
"Z&	c #A2A1A9",
"`&	c #474552",
" *	c #767482",
".*	c #868394",
"+*	c #797785",
"@*	c #D6D5DA",
"#*	c #AED36C",
"$*	c #B3D275",
"%*	c #5E5B6C",
"&*	c #625E75",
"**	c #A7A4B5",
"=*	c #898699",
"-*	c #AAA9B1",
";*	c #79973F",
">*	c #5B586B",
",*	c #433F5A",
"'*	c #CFCDDA",
")*	c #8E8C99",
"!*	c #757380",
"~*	c #7D9B45",
"{*	c #9ABD5F",
"]*	c #8A8991",
"^*	c #524F64",
"/*	c #9491A4",
"(*	c #868396",
"_*	c #767481",
":*	c #D4D3D8",
"<*	c #9FC35F",
"[*	c #B1D66C",
"}*	c #90B54B",
"|*	c #B2D076",
"1*	c #74973D",
"2*	c #474550",
"3*	c #484556",
"4*	c #8C899C",
"5*	c #8D8B99",
"6*	c #B2B1B9",
"7*	c #CEDCBD",
"8*	c #AAC870",
"9*	c #80A349",
"0*	c #ABCE70",
"a*	c #A6CA68",
"b*	c #A1A0A6",
"c*	c #BEBDC3",
"d*	c #E4E3E8",
"e*	c #CCCBD1",
"f*	c #A7C56D",
"g*	c #789543",
"h*	c #7DA046",
"i*	c #A9CD6B",
"j*	c #ABAAAF",
"k*	c #747379",
"l*	c #A8A7AD",
"m*	c #ABC973",
"n*	c #7C9949",
"o*	c #B1D66F",
"p*	c #B3D773",
"q*	c #A9C771",
"r*	c #7A9747",
"s*	c #96BA58",
"t*	c #9DBB65",
"u*	c #7D9A4A",
"v*	c #90B450",
"w*	c #819E4E",
"x*	c #9EC260",
"y*	c #7C9947",
"z*	c #A1C466",
"A*	c #B3D86F",
"B*	c #8DB248",
"C*	c #7D9A46",
"D*	c #A4C866",
"E*	c #B0D56C",
"F*	c #ADCB71",
"G*	c #86A44E",
"H*	c #8CB147",
"I*	c #A8C66C",
"J*	c #84A24C",
"K*	c #769940",
"L*	c #A1C366",
"M*	c #9ABD5C",
"N*	c #9FC35B",
"O*	c #73953D",
"P*	c #A1C467",
"Q*	c #A2C562",
"R*	c #AED36B",
"S*	c #A6CC5E",
"T*	c #ACD262",
"U*	c #92B84B",
"V*	c #A4C365",
"W*	c #89A74D",
"X*	c #749740",
"Y*	c #A1C666",
"Z*	c #ADD370",
"`*	c #A6CC65",
" =	c #A0C75C",
".=	c #A6CE5D",
"+=	c #AED664",
"@=	c #96BE4B",
"#=	c #A5CD5A",
"$=	c #A8D05D",
"%=	c #ABD361",
"&=	c #AAD262",
"*=	c #A1C85B",
"==	c #9BC257",
"-=	c #A1C85D",
";=	c #ACD368",
">=	c #B4DA6B",
",=	c #B2D869",
"'=	c #B6D673",
")=	c #82A241",
"!=	c #769946",
"~=	c #9FC465",
"{=	c #ABD070",
"]=	c #A5CB65",
"^=	c #A0C65C",
"/=	c #A5CC5D",
"(=	c #ACD462",
"_=	c #95BD49",
":=	c #A0C951",
"<=	c #A3CC54",
"[=	c #A7CF5C",
"}=	c #A5CD5B",
"|=	c #9CC454",
"1=	c #97BE51",
"2=	c #9DC45A",
"3=	c #A8CF64",
"4=	c #ABD160",
"5=	c #94BA49",
"6=	c #B6D671",
"7=	c #82A23F",
"  . + @ # $ % & * = - ; > , ' ) ! ~ { { ] ^ / ( _ : < [ } | 1 2 3 4 5 6 7 3 8 9 0 * a b c d e f g h ",
"i j k = l m n o p q r s t u v w x y z A B C D E F G H l I J K L M N O ! P s Q q R R S T U V W X Y Z ",
"`  .+ ..+.@.#.$.%.&.*.=.-.;.>.,.x '.A ).!.~.{.&.].^./.(._.:.<.[.M !.- - t }.|.1.2., 3.S d 4.3.X 5.6.",
"7.8.9.0.a.$ n W b.X c.d.e.%.U f.5 g.h.i.j.k.}.l.2.u m.V +.[ n.4.o.x p.r q.7 Q r.,.s./.>.t.c < 7 u.v.",
"w.x.y.Q # z.A.e R B.C.D.E.G F.G.- H.I.J.B k.t |.R R K.F.a.L.:.M...E.N.O.D.k.P.1.Q.R.* b.H S.T.E.U.V.",
"W.X.g.Y.Z.n.`. +.+@ ~.7 N.Q.++' 3 @+j.c.D.P #+8 .+$+V F.v %+$.&+*+7 =+D.E.t 8 -+%.Q.G ;+b >+d ,+'+)+",
"!+. ~+8 {+]+^+[ ;.0.4 3 M /+>.(+7 _+:+O 7 <+#+o.* f.) [+S./.b }+8 ....8 @ #+8 |+..@ 1+1+2+* %.x 3+4+",
"5+6+7+..8+z.9+(.%.].0+a+; R < m.P B B k.-.b+c+&.* ^.,.%.T.4.m.G 1+q c+#+*+8 c+d+Q |.2.e+;.$+%.f+g+h+",
"i+. + f a.j+#._.2+1.k+l+t $+U a #+b+D.O.s P.m+n+@ *+;.b.$+G s.o+G 2+G p+;.u &.q+Y.r+Q s+B...@ 5 t+u+",
"v+w+h.l.I } x+y+2+P.B q.3 G b b -+z+<+> 1.P.A+1.1.#+s.R.B+o+%.1+) ) 1+u /+R.C+|.l.@ P.1.9 |+@ ).D+E+",
"i+F+y.l.8+} x+y+$+q N <+d., F.' %.o.B.G+X ].X r.1.#+q C+P.|.l.;.s.V K.++H+G./+;+l.P.q.=+<+M O.I+J+K+",
"L+M+7+Q 8+x+} {+1+o.5 d.a+G.t.b s.|+*+P.Y.P.B.Q @ *+9 c+|.&.d+R.R.N+T.b %..+* Q.9 o.k.k.d.O.O+H.P+Q+",
"5+R+k q 2 9+$ S+G *+O k.t * U T %.T+T+f.2+1+q 8 #+@ 8 9 P.Y...) s.a T U 4.a f.* U+q P 3 4 N 6 z V+W+",
"i+X+Y+&.{+m m Z.,.B.*.=+<+$+m._.u e+, ;+/+/+|.#+B.m+C+#+C+0.Y.B.F.H >.Z+>+F.p+Q.@ r.{.P *.N 5 `+ @.@",
"5+F+y.n+a.x+n a.H+l.+@l+E.e+t.[.R $+u G.u , B.o.c+@@].1.#@s }.$@t.Z.m./.3.' R.p+q @@N.a+J.%@x I.&@*@",
"=@-@7+|.;@>@9+S+s.}.p.,@D.1+b '@e+R p+u %.u d+Q = ].l.1.M 3 )@C+;+!@$+s., , ;.].|+1.M s J.!.~@~+{@]@",
"^@-@/@9 S 2 {+N+#+=+5 O (@*+1+T.f.8 *+8 9 @ @ @ 0._@:@<@[@}@|@1@2@3@4@5@6@7@8@<@9@<+d.0@-.7 k.k a@b@",
"c@-@y -.S  +L.< ..0@).- N 1.;.K.0.#+8 8 o.@ 9 *+d@e@f@g@h@i@j@k@l@m@n@o@p@q@r@s@t@u@3 e.k.E.M H.v@w@",
"x@y@z@(@H _.e >.#+=+~+c.~.X A@Z+#+9 *+8 Y.C+A+Q B@C@D@E@F@G@H@I@J@K@L@M@N@O@P@Q@R@S@T@<+s l+O.I.U@V@",
"W@X@Y@k.t.Z@%+v 1.a+I+B B 1., ;@#+Y.q P.0.`@ #.#+#@###$#%#&#*#=#-#;#>#,#'#)#!#~#{#]#^#/#M d.D.(#_#:#",
"<#[#}#}.;@Z.e F.|.#@(#*.- @ * V A+d+].|.|#1#2#3#4#5#6#7#8#9#0#a#b#c#d#e#f#g#h#i#j#k#l#m#n#3 e.~+o#p#",
"q#r#s#D.V 2 l K.1.l+(#B !.A+;.F.0.|.].|.t#u#v#w#x#y#z#A#B#C#D#E#F#G#H#I#J#K#L#M#N#O#P#Q#R#t P I+S#T#",
"U#-@V#7 S  +Z.>.A+}.W#x ,@X ;+t...o.P.X#Y#Z#`# $.$+$@$#$$$%$&$*$=$-$;$>$,$'$)$!$~${$]$^$/$($d+(#_$:$",
"<$[$}$e.4.[  +a P.k.A j.~.r.R.c 9 8 |$1$2$3$4$5$6$7$8$9$0$a$b$c$d$e$f$g$h$i$j$k$l$m$n$o$p$q$|.+ r$s$",
"t$u$v$t T.w$y+K.A+O.x$!.O 8 R S.Q *+y$z$A$B$C$D$E$F$G$H$I$J$K$L$M$N$O$P$Q$R$S$T$U$V$W$X$Y$Z$o+5 `$ %",
".%u$+%E.T.e Z@;@8 }.9.%@!.@ 2+@%#%$%%%&%*%=%-%;%>%-%,%'%)%!%~%{%]%^%/%(%_%:%<%[%}%|%1%2%3%4%2+6 5%6%",
"7%8%9%O+S.0%y+F.Y.D.W#*.j.a%b%c%d%e%f%g%h%i%j%k%l%m%n%o%p%q%r%s%t%u%v%w%x%y%z%A%B%C%D%E%F%R.G r G%H%",
"I%J%K%L%>.W W /.P.=+7+5 M%N%O%P%9 8 1.Q%R%S%T%U%V%W%X%Y%Z%`% &.&+&@&#&$&%&&&*&=&-&;&>&,&'&Q.p+p.)&!&",
"^@X@'.E.U o _.N+= b+7+~&{&]&R.b P.|+o.Q C+^&/&(&_&:&<&[&}&|&1&2&3&4&5&6&7&8&9&0&a&b&S c&Z+' /.t d&e&",
"^@u$v$P a _.Z.T Y.f&g&h&i&Y.G 4.A+|+-+9 8 o.@ j&k&l&m&n&o&p&q&r&s&t&u&v&w&x&y&N+[+T H z&' N+>.0@A&:#",
"t$B&C&{.b (.a.D&E&F&G&H&I&8 * /.X A+1.].f |.f c+].d+A+Y.9 9 Y.%.;.t.t.J&'@F./.F.;@/./.4.T.T.V P K&L&",
"x@M&}#N&;@Z@O&P&Q&R&S&T&+@Q R.F.c+#+|.@@d+1.|.C+C+m+X X d+|.m+].R H ;.v U&'@, K.1+v U&V&s.Z+R.=.W&X&",
"W@Y&V#t F.Z&`& *.*+*@*#*6 Y.G >+c+q Y.P.Q B.A+c+..A+&.A+#+#+P.0.m+s.@ G c+, m+;.r+Q.1.s.f e+|+N $*Z ",
"I%u$'.0@S.%*&***=*-*~+j.5 = 2+U 8 @ Y.@ *+..9 Y.*+q P.o.*+9 9 |+o.#+q Y.o.8 o.#+8 P.q @ q o.|+_+v@;*",
"x@[$}$3 >*,*'*)*!*; + f+~.0.^.b 9 o.o.9 8 8 @ q *+*+*+8 0.f m+A+@ @ o.o.o.9 9 9 o.-+= 8 9 0.|.x U.~*",
"^@{*y ]*^*/*(*_*:*k.<*_+p.X w Z+0.o.|+8 c+|.1.c+q #+@ P.f @@[*G+f #+}*-+#+A+A+c+Q = @ Q #+B.[*T&|*e&",
"1*Y&+%2*3*4*5*6*7*O.g.B _+f Q.;@q Y.Y.q C+B.|.f ].m+1.Q c+P.c+A+A+P.o.9 Y.C+B.1.G+B.].X #+o.B.`+8*E+",
"9*0*a*b*c*d*e*F.|.L%W#~.f+c+G >.o.|.@@].P.o.Q X ].d+m+B.Y.*+9 0.9 B.@@r.C+@ 0.f l.|.].r.q = 8 { f*g*",
"h*r#i*j*k*l*:.S.c+E.g.~.x Q p+Z+o.B.l.&.0.@ 0.m+Q C+A+|.A+c+B.l.8 Q l.r.A+Y.q Q P.P.P.A+f P.Y.y.m*n*",
".%[$V#<+S. +{+U c+3 I+r o*P./+'@9 ....@ c+C+#+..P.Y.P.|.m+|.&.[*#+*+= 8 0.C+q 8 q 0.9 0.n+d+Q p*q*r*",
"1*-@s*t T 8+L.T m+d.A - r &.%.@%8 ..o.9 -+9 #+}*q A+c+8 @ f |.@ 9 @ @ *+= |+8 @ }*c+C+|+*+f d+7+t*u*",
"x@{*s*P a o Z@/.#+M y.%@!.Y.$+N+c+@ q P.o.c+&.d+#+B.f Q C+Q 0.*+c+q Y.q Y.Y.A+r.C+|.d+f C+#+..v*_$w*",
"^@X@x*l+m.(.w$/.8 s x$r ! = f.b q |+#+B.P.P.d+@@#+c+1.B.P.o.8 9 @ |+8 Q B.P.A+@@#+|+#+&.m+9 8 g.t+y*",
"7%z*K%A*' y+Z@K.C+D.~+- 4 P.R.H o.}*P.X f P.Q f Q 0.P.0.Y.o.Y.B.*+B**+&.X C+c+].l.P.@ A+C+..|+<*G%C*",
".%X@D*E*t.W W '@c+t 7+5 x &.G.t.P...Q [*r.Q 1.d+1.q @ P.Q A+1.&.C+8 #+l.G+1.A+@@m+c+@ Y.C+A+C+!.F*G*",
"t$-@}$d.T +.:.H r+0@<*B B A+Q.>.P.-+8 C+P.q A+B.o.9 9 q B.|.A+0.1.o...q c+#+0.d+H*-+..8 C+r.&.*.I*J*",
"K*L*M*N*(+{+L.< = q.<**.5 Y.R m.c+*+*+o.8 Y.0.8 *+q P.@ #+C+0.9 c+o...8 @ @ #+q #+c+C+Y.o.#+8 f+A&Q+",
"O*P*Q*R*S*T*e +.A@m+t 3 q.Q p+e+;+;./+^., G.u U*R.;+G.G B+e+Q.%.s.R.u /+G.^.p+R %.p+Q.s.$+G R.O.V*W*",
"X*Y*Z*`* =.=+=@=#=$=%=&=*===-=;=>.U /.++t.F.v V b >=/.,=/.;@S./.Z+[+b M.F.t.'@K.m.t.>+M.'@;@S.%.'=)=",
"!=~={=]=^=/=(=_=:=<=[=}=|=1=2=3=H  +o 4=_.(.4=Z.5=%+Z.W Z.{+ +l $.[ 8+W # _.W Z@5=+.(.w$_.I  +T.6=7="};
